<svg width="24" height="26" viewBox="0 0 24 26" fill="none" xmlns="http://www.w3.org/2000/svg">
<path d="M22.1202 10.0137H14.4651V11.147H22.1202C22.3714 11.147 22.5739 11.3494 22.5739 11.6004V23.4277C22.5739 23.6787 22.3714 23.8811 22.1202 23.8811H14.4651V25.0144H22.1202C22.9951 25.0144 23.708 24.302 23.708 23.4277V11.6004C23.708 10.7261 22.9951 10.0137 22.1202 10.0137Z" fill="#8364FF"/>
<path d="M20.8162 21.9127L21.0268 20.8037C19.6254 20.5365 18.4508 20.067 17.5273 19.387C17.9485 18.9417 18.2645 18.4884 18.4994 18.0755C19.034 17.1365 19.2365 16.2541 19.3176 15.7117H20.9215V14.5783H17.2438V13.0078H16.1097V14.5783H12.432V15.7117H14.0359C14.1169 16.2541 14.3194 17.1365 14.8541 18.0755C15.089 18.4884 15.4049 18.9417 15.8262 19.387C14.9027 20.0589 13.7281 20.5365 12.3267 20.8037L12.5373 21.9127C14.3761 21.5646 15.7046 20.9008 16.6767 20.156C17.6488 20.9008 18.9773 21.5646 20.8162 21.9127ZM18.1754 15.7117C18.0943 16.165 17.908 16.8531 17.4949 17.5655C17.2681 17.9541 17.0008 18.3184 16.6848 18.6422C16.377 18.3184 16.1097 17.9541 15.8748 17.5655C15.4616 16.845 15.2753 16.165 15.1943 15.7117H18.1754Z" fill="#8364FF"/>
<path d="M1.44733 14.4004V2.57302C1.44733 2.32207 1.64985 2.11968 1.90097 2.11968H9.55612V0.986328H1.90097C1.02609 0.986328 0.313232 1.69872 0.313232 2.57302V14.4004C0.313232 15.2747 1.02609 15.9871 1.90097 15.9871H9.55612V14.8537H1.90097C1.64985 14.8537 1.44733 14.6513 1.44733 14.4004Z" fill="#C34FFA" fill-opacity="0.9"/>
<path d="M6.09709 4.30469L3.14844 12.6672H4.51745L5.35182 10.3115H8.47059L9.33736 12.6672H10.7955L7.70912 4.30469H6.09709ZM8.11416 9.12953H5.70015L5.84597 8.69238C6.2996 7.34855 6.67224 6.26377 6.87475 5.59185C7.04487 6.15043 7.35269 7.00045 7.82253 8.3038C7.91164 8.56286 8.00885 8.8381 8.11416 9.12953Z" fill="#C34FFA" fill-opacity="0.9"/>
</svg>
